<?xml version="1.0" standalone="no"?>
<!DOCTYPE svg PUBLIC "-//W3C//DTD SVG 20010904//EN"
 "http://www.w3.org/TR/2001/REC-SVG-20010904/DTD/svg10.dtd">
<svg version="1.0" xmlns="http://www.w3.org/2000/svg"
 width="700.000000pt" height="700.000000pt" viewBox="0 0 700.000000 700.000000"
 preserveAspectRatio="xMidYMid meet">
<metadata>
Created by potrace 1.11, written by Peter Selinger 2001-2013
</metadata>
<g transform="translate(0.000000,700.000000) scale(0.100000,-0.100000)"
fill="#000000" stroke="none">
<path d="M963 6333 c-3 -7 -19 -13 -37 -13 -21 0 -37 -8 -49 -24 -12 -15 -26
-23 -38 -21 -12 2 -19 -2 -19 -11 0 -8 -7 -14 -15 -14 -8 0 -15 -6 -15 -13 0
-6 -16 -25 -35 -41 -19 -16 -32 -33 -29 -37 3 -5 -6 -20 -20 -33 -17 -15 -26
-34 -26 -54 0 -17 -6 -32 -12 -34 -19 -7 -19 -5076 -1 -5083 7 -2 13 -20 13
-40 0 -23 4 -34 13 -32 6 1 11 -4 10 -10 -2 -7 3 -13 11 -13 8 0 13 -7 12 -16
-3 -18 53 -81 66 -77 4 2 7 -3 5 -10 -1 -6 4 -11 11 -10 6 2 12 -4 12 -12 0
-8 8 -15 19 -15 10 0 26 -11 36 -24 14 -18 26 -23 51 -21 23 1 34 -2 34 -12 0
-11 418 -13 2546 -13 1694 0 2543 3 2539 10 -7 11 -5 11 40 14 19 1 29 7 27
15 -2 8 3 11 13 8 9 -4 15 -1 15 8 0 8 9 15 20 15 11 0 23 7 26 15 4 8 10 12
15 9 5 -3 9 3 9 12 0 10 3 15 6 11 9 -8 46 32 39 44 -4 5 -1 8 6 7 7 -2 15 6
17 16 2 10 14 28 26 40 16 14 22 31 21 53 -1 18 3 31 9 30 8 -1 12 740 14
2541 2 2072 0 2542 -11 2542 -8 0 -13 12 -12 32 0 22 -7 40 -22 54 -13 12 -23
29 -23 38 0 9 -7 16 -16 16 -8 0 -13 4 -10 8 6 10 -30 43 -38 35 -3 -4 -6 -1
-6 5 0 17 -32 47 -50 47 -18 0 -49 27 -43 38 2 4 -14 7 -36 7 -27 0 -40 4 -38
12 3 18 -5073 19 -5080 1z"/>
</g>
</svg>
