<?xml version="1.0" standalone="no"?>
<!DOCTYPE svg PUBLIC "-//W3C//DTD SVG 20010904//EN"
 "http://www.w3.org/TR/2001/REC-SVG-20010904/DTD/svg10.dtd">
<svg version="1.0" xmlns="http://www.w3.org/2000/svg"
 width="700.000000pt" height="700.000000pt" viewBox="0 0 700.000000 700.000000"
 preserveAspectRatio="xMidYMid meet">
<metadata>
Created by potrace 1.11, written by Peter Selinger 2001-2013
</metadata>
<g transform="translate(0.000000,700.000000) scale(0.100000,-0.100000)"
fill="#000000" stroke="none">
<path d="M960 6335 c0 -10 -10 -15 -30 -15 -17 0 -40 -9 -52 -20 -12 -11 -30
-20 -40 -20 -10 0 -18 -7 -18 -15 0 -8 -4 -15 -10 -15 -12 0 -60 -48 -60 -60
0 -6 -7 -10 -15 -10 -8 0 -15 -8 -15 -18 0 -10 -9 -28 -20 -40 -11 -12 -20
-35 -20 -52 0 -20 -5 -30 -15 -30 -13 0 -15 -289 -15 -2540 0 -2249 2 -2541
15 -2546 9 -4 15 -19 15 -38 0 -20 7 -37 20 -46 11 -8 20 -21 20 -28 0 -17
103 -122 119 -122 7 0 22 -11 35 -25 15 -16 34 -25 55 -25 17 0 31 -4 31 -10
0 -7 432 -10 1275 -10 l1275 0 3 1263 c2 694 7 1277 11 1295 5 17 12 32 17 32
5 0 9 9 9 20 0 11 5 20 10 20 6 0 18 16 27 35 9 19 20 35 25 35 4 0 8 7 8 15
0 8 7 15 15 15 8 0 15 4 15 8 0 5 16 16 35 25 19 9 35 21 35 27 0 5 9 10 20
10 11 0 20 4 20 9 0 5 15 12 33 17 17 4 600 9 1295 11 l1262 3 0 1275 c0 843
-3 1275 -10 1275 -5 0 -10 14 -10 31 0 21 -9 40 -25 55 -14 13 -25 28 -25 35
0 16 -105 119 -122 119 -7 0 -20 9 -28 20 -9 13 -26 20 -46 20 -19 0 -34 6
-38 15 -5 13 -297 15 -2546 15 -2251 0 -2540 -2 -2540 -15z m1220 -1070 c3
-132 7 -241 8 -242 1 -2 107 -3 235 -3 127 0 238 -4 245 -8 9 -6 12 -33 10
-98 l-3 -89 -236 -3 c-181 -2 -239 -5 -248 -15 -7 -9 -12 -98 -13 -248 l-3
-234 -89 -3 c-65 -2 -92 1 -98 10 -4 7 -8 118 -8 246 0 127 -1 233 -2 234 -2
1 -111 5 -243 8 l-240 5 0 95 0 95 240 5 240 5 3 230 c1 127 4 236 7 243 3 9
29 12 97 10 l93 -3 5 -240z m3330 -345 l0 -100 -579 0 c-319 0 -586 3 -595 6
-13 5 -16 23 -16 94 0 76 3 89 18 93 9 3 277 5 595 6 l577 1 0 -100z m-3750
-2380 c8 -11 20 -20 27 -20 7 0 13 -5 13 -10 0 -6 61 -72 135 -146 118 -119
139 -135 160 -130 14 4 25 10 25 15 0 13 36 51 49 51 6 0 14 7 17 15 4 8 12
15 20 15 8 0 14 9 14 20 0 11 7 20 15 20 8 0 15 7 15 15 0 8 9 15 20 15 13 0
20 7 20 20 0 11 7 20 15 20 8 0 15 7 15 15 0 8 9 15 20 15 11 0 20 5 20 11 0
6 6 16 13 23 6 8 19 23 27 35 18 27 42 27 60 0 8 -12 21 -27 28 -35 6 -7 12
-17 12 -23 0 -6 9 -11 20 -11 11 0 20 -7 20 -15 0 -8 7 -15 15 -15 8 0 15 -9
15 -20 0 -11 -4 -20 -10 -20 -12 0 -60 -48 -60 -60 0 -6 -4 -10 -10 -10 -12 0
-60 -48 -60 -60 0 -6 -4 -10 -10 -10 -5 0 -21 -11 -35 -25 -14 -14 -25 -30
-25 -35 0 -6 -4 -10 -10 -10 -5 0 -21 -11 -35 -25 -14 -14 -25 -30 -25 -35 0
-6 -5 -10 -11 -10 -16 0 -38 -31 -39 -52 0 -10 5 -18 10 -18 6 0 10 -7 10 -15
0 -8 4 -15 10 -15 5 0 75 -65 155 -145 132 -132 164 -175 135 -175 -6 0 -22
-11 -35 -25 -14 -13 -25 -29 -25 -35 0 -5 -6 -10 -13 -10 -7 0 -19 -9 -27 -20
-8 -11 -21 -20 -30 -20 -9 0 -22 9 -30 20 -8 11 -20 20 -27 20 -7 0 -13 5 -13
10 0 14 -46 60 -60 60 -5 0 -10 5 -10 10 0 14 -46 60 -60 60 -5 0 -10 5 -10
10 0 6 -11 22 -25 35 -13 14 -29 25 -35 25 -5 0 -10 5 -10 10 0 18 -48 60 -69
60 -20 0 -71 -43 -71 -60 0 -6 -4 -10 -10 -10 -12 0 -60 -48 -60 -60 0 -6 -4
-10 -10 -10 -12 0 -60 -48 -60 -60 0 -6 -4 -10 -10 -10 -12 0 -60 -48 -60 -60
0 -6 -6 -10 -13 -10 -7 0 -18 -9 -25 -20 -7 -11 -17 -20 -22 -20 -10 0 -150
134 -150 144 0 3 7 6 15 6 8 0 15 7 15 15 0 8 9 15 20 15 13 0 20 7 20 20 0
11 7 20 15 20 8 0 15 7 15 15 0 8 9 15 20 15 13 0 20 7 20 20 0 11 7 20 15 20
8 0 15 7 15 15 0 8 9 15 20 15 11 0 20 6 20 14 0 8 7 16 15 20 8 3 15 10 15
16 0 14 19 33 48 49 12 6 22 18 22 26 0 8 5 15 10 15 6 0 10 9 10 21 0 22 -22
49 -39 49 -6 0 -11 5 -11 10 0 14 -46 60 -60 60 -5 0 -10 5 -10 10 0 14 -46
60 -60 60 -5 0 -10 5 -10 10 0 14 -46 60 -60 60 -5 0 -10 5 -10 10 0 6 -11 22
-25 35 -13 14 -29 25 -35 25 -17 0 -11 18 15 45 14 14 30 25 35 25 6 0 10 5
10 10 0 6 11 22 25 35 13 14 29 25 35 25 5 0 10 5 10 10 0 16 15 11 30 -10z"/>
<path d="M4980 3090 c0 -5 -11 -10 -24 -10 -14 0 -28 -4 -31 -10 -3 -5 -15
-10 -26 -10 -10 0 -19 -7 -19 -15 0 -8 -9 -15 -20 -15 -11 0 -20 -4 -20 -10 0
-5 -7 -10 -15 -10 -8 0 -15 -5 -15 -10 0 -11 -10 -25 -47 -65 -13 -13 -23 -29
-23 -35 0 -5 -11 -10 -25 -10 -14 0 -25 -4 -25 -10 0 -5 -8 -10 -17 -10 -28 0
-97 -27 -101 -39 -2 -6 -12 -11 -23 -11 -10 0 -19 -4 -19 -10 0 -5 -5 -10 -10
-10 -12 0 -15 -3 -74 -55 -22 -19 -44 -35 -48 -35 -4 0 -8 -7 -8 -15 0 -8 -6
-15 -13 -15 -7 0 -19 -15 -26 -34 -8 -18 -24 -41 -37 -51 -13 -10 -24 -26 -24
-36 0 -11 -4 -19 -10 -19 -5 0 -10 -9 -10 -20 0 -11 -4 -20 -10 -20 -5 0 -10
-11 -10 -24 0 -13 -5 -26 -11 -28 -15 -5 -39 -75 -39 -115 0 -18 -4 -33 -10
-33 -6 0 -10 -37 -10 -90 0 -89 0 -90 -25 -90 -14 0 -25 -4 -25 -9 0 -5 -9
-13 -20 -16 -29 -9 -70 -49 -70 -69 0 -9 -7 -16 -15 -16 -9 0 -15 -9 -15 -24
0 -14 -4 -28 -10 -31 -25 -15 4 -185 31 -185 5 0 9 -5 9 -10 0 -14 46 -60 59
-60 5 0 11 -5 13 -11 2 -5 22 -13 44 -16 36 -5 41 -9 52 -44 7 -21 12 -46 12
-54 0 -8 7 -15 15 -15 10 0 15 -11 15 -35 0 -19 5 -35 10 -35 6 0 10 -7 10
-15 0 -8 5 -15 10 -15 6 0 10 -9 10 -20 0 -11 7 -20 15 -20 8 0 15 -7 15 -15
0 -8 4 -15 9 -15 5 0 13 -10 16 -21 9 -28 106 -125 134 -134 11 -3 21 -11 21
-16 0 -5 7 -9 15 -9 8 0 15 -3 15 -7 0 -11 58 -43 76 -43 8 0 14 -4 14 -10 0
-5 11 -10 24 -10 13 0 26 -4 28 -10 15 -44 471 -46 486 -1 2 6 15 11 28 11 13
0 24 5 24 10 0 6 11 10 25 10 14 0 25 5 25 10 0 6 9 10 20 10 11 0 20 7 20 15
0 8 9 15 20 15 11 0 20 5 20 10 0 6 5 10 11 10 6 0 31 20 55 45 23 25 47 45
53 45 6 0 11 7 11 15 0 8 5 15 10 15 6 0 10 7 10 15 0 8 5 15 10 15 6 0 10 9
10 20 0 11 5 20 11 20 16 0 38 31 39 53 0 9 5 17 10 17 6 0 10 9 10 19 0 10 7
21 15 25 8 3 15 16 15 30 0 14 5 28 10 31 6 3 10 22 10 41 0 19 5 34 10 34 6
0 10 117 10 330 0 188 -4 330 -9 330 -5 0 -11 17 -14 38 -12 77 -20 102 -33
102 -8 0 -14 10 -14 25 0 14 -4 25 -10 25 -5 0 -10 8 -10 18 -1 21 -23 52 -39
52 -6 0 -11 7 -11 15 0 9 -9 26 -20 38 -12 12 -20 33 -19 47 4 72 -2 130 -16
144 -8 8 -15 24 -15 35 0 12 -4 21 -10 21 -5 0 -10 7 -10 15 0 8 -4 15 -10 15
-5 0 -10 9 -10 20 0 11 -7 20 -15 20 -8 0 -15 4 -15 10 0 9 -47 60 -56 60 -3
0 -12 6 -19 14 -8 7 -34 20 -59 27 -26 7 -46 17 -46 21 0 4 -47 8 -105 8 -63
0 -105 -4 -105 -10z m197 -102 c18 -7 33 -16 33 -20 0 -4 9 -8 20 -8 11 0 20
-5 20 -10 0 -6 11 -16 25 -22 14 -6 25 -15 25 -20 0 -5 9 -18 20 -30 11 -12
20 -30 20 -40 0 -10 7 -18 15 -18 12 0 15 -18 15 -105 0 -58 -4 -105 -9 -105
-5 0 -15 -16 -21 -35 -12 -35 -90 -125 -110 -125 -6 0 -18 -4 -28 -9 -9 -6
-34 -13 -54 -16 -21 -3 -38 -10 -38 -15 0 -6 -13 -10 -30 -10 -16 0 -30 4 -30
9 0 5 -15 12 -32 16 -51 10 -98 28 -98 37 0 4 -9 8 -20 8 -11 0 -20 7 -20 15
0 8 -4 15 -8 15 -5 0 -16 16 -25 35 -9 19 -21 35 -27 35 -5 0 -10 14 -10 30 0
17 -4 30 -10 30 -6 0 -10 33 -10 80 0 47 4 80 10 80 6 0 10 13 10 29 0 16 6
31 15 35 8 3 15 10 15 16 0 16 79 90 95 90 8 0 15 4 15 8 0 26 169 41 227 20z
m-257 -648 c0 -5 15 -10 34 -10 21 0 36 -6 40 -15 4 -12 23 -15 85 -15 57 0
84 4 95 15 16 17 56 20 56 5 0 -12 48 -60 60 -60 6 0 10 -4 10 -10 0 -12 48
-60 60 -60 6 0 10 -4 10 -10 0 -12 48 -60 60 -60 6 0 10 -4 10 -10 0 -9 47
-60 56 -60 3 0 16 -10 30 -23 25 -23 25 -24 21 -168 -5 -157 -14 -229 -28
-229 -5 0 -9 -16 -9 -35 0 -24 -5 -35 -15 -35 -8 0 -15 -8 -15 -18 0 -10 -9
-28 -20 -40 -11 -12 -20 -26 -20 -32 0 -6 -11 -21 -25 -34 -14 -13 -25 -26
-25 -30 0 -10 -47 -56 -57 -56 -5 0 -15 -9 -23 -20 -8 -11 -20 -20 -28 -20 -7
0 -15 -7 -18 -15 -4 -8 -12 -15 -20 -15 -8 0 -14 -4 -14 -10 0 -5 -9 -10 -19
-10 -11 0 -23 -4 -26 -10 -3 -5 -17 -10 -31 -10 -14 0 -27 -7 -30 -15 -4 -11
-21 -15 -55 -15 -27 0 -49 -4 -49 -10 0 -6 -37 -10 -90 -10 -53 0 -90 4 -90
10 0 6 -16 10 -35 10 -19 0 -35 5 -35 10 0 6 -16 18 -35 27 -19 9 -35 20 -35
25 0 4 -5 8 -12 8 -14 0 -128 116 -128 130 0 5 -7 10 -15 10 -8 0 -15 9 -15
20 0 11 -4 20 -10 20 -5 0 -10 7 -10 15 0 8 -4 15 -10 15 -5 0 -10 9 -10 20 0
11 -7 23 -15 26 -9 4 -15 19 -15 35 0 16 -3 29 -8 29 -22 0 -42 182 -22 195 6
3 10 15 10 26 0 10 5 19 10 19 6 0 10 23 10 50 0 28 -4 50 -10 50 -5 0 -10 13
-10 28 0 15 -5 33 -12 40 -9 9 -9 12 0 12 7 0 12 7 12 15 0 8 9 15 20 15 11 0
20 4 20 8 0 5 16 17 35 28 19 10 35 22 35 26 0 5 7 8 15 8 8 0 15 4 15 8 0 5
16 16 35 25 19 9 35 21 35 27 0 5 9 10 20 10 11 0 20 4 20 8 0 5 11 15 25 22
14 7 25 19 25 27 0 7 10 13 23 13 12 0 29 9 37 20 8 11 22 20 31 20 9 0 25 11
35 25 18 25 54 34 54 15z m-627 -332 c15 -7 27 -20 27 -30 0 -9 6 -18 13 -21
18 -6 14 -121 -6 -141 -9 -9 -20 -16 -26 -16 -6 0 -11 -7 -11 -15 0 -12 -14
-15 -65 -15 -55 0 -68 3 -90 25 -14 14 -25 30 -25 35 0 6 -4 10 -10 10 -5 0
-10 25 -10 55 0 30 5 55 10 55 6 0 10 7 10 15 0 8 6 15 13 15 7 0 18 9 25 20
10 16 23 20 65 20 29 0 65 -6 80 -12z"/>
<path d="M5063 2913 c-9 -3 -13 -30 -13 -84 l0 -79 -85 0 -85 0 0 -35 c0 -24
5 -35 15 -35 8 0 15 -4 15 -10 0 -5 30 -10 68 -12 l67 -3 3 -55 c4 -86 9 -100
37 -100 28 0 33 14 37 100 l3 55 63 3 c34 2 62 7 62 12 0 6 7 10 15 10 8 0 15
7 15 15 0 8 5 15 10 15 6 0 1 9 -10 20 -16 16 -33 20 -90 20 l-70 0 0 69 c0
82 -17 111 -57 94z"/>
<path d="M4740 1970 c0 -5 -6 -10 -14 -10 -23 0 -41 -67 -25 -96 7 -13 18 -24
26 -24 7 0 13 -7 13 -15 0 -11 12 -15 50 -15 38 0 50 4 50 15 0 8 5 15 10 15
6 0 10 9 10 20 0 11 5 20 10 20 6 0 10 7 10 15 0 8 -4 15 -10 15 -5 0 -10 8
-10 18 0 28 -36 52 -80 52 -22 0 -40 -4 -40 -10z"/>
<path d="M5178 1959 c-24 -25 -24 -102 -1 -129 12 -14 30 -20 60 -20 57 0 93
35 93 90 0 26 -5 40 -13 40 -7 0 -19 9 -27 20 -19 27 -88 26 -112 -1z"/>
<path d="M4850 1715 c0 -8 -4 -15 -10 -15 -5 0 -10 -9 -10 -21 0 -22 22 -49
39 -49 6 0 11 -5 11 -11 0 -16 31 -38 53 -39 9 0 17 -4 17 -10 0 -6 33 -10 80
-10 44 0 80 4 80 9 0 5 11 12 25 15 13 3 36 17 50 30 22 20 26 32 23 68 -3 42
-4 43 -40 46 -24 2 -38 -1 -38 -8 0 -29 -32 -43 -100 -44 -63 0 -71 2 -92 27
-27 31 -88 39 -88 12z"/>
</g>
</svg>
